<svg width="512" height="512" viewBox="0 0 200 200" fill="none" xmlns="http://www.w3.org/2000/svg">
  <path opacity=".6" d="M30 40h140M30 70h140M30 100h140M30 130h140M30 160h140" stroke="#7ea0b0" stroke-width="8" stroke-linecap="round"/>
  <g stroke-width="8" stroke-linecap="round">
    <path stroke="#4f6d85" d="M55 20v160"/>
    <path stroke="#90be6d" d="M85 20v160"/>
    <path stroke="#4f6d85" d="M115 20v160"/>
    <path stroke="#90be6d" d="M145 20v160"/>
  </g>
  <g stroke-linecap="round" stroke-linejoin="round" stroke-width="10">
    <path d="m30 115 30 30 70-70h40" stroke="#5d8aa8"/>
    <path d="m30 95 30 30 70-70h40" stroke="#4f6d85"/>
    <path d="m30 80 25 25 70-70h40" stroke="#a3c990"/>
  </g>
  <g fill="#4a6f8a">
    <rect x="20" y="20" width="12" height="160" rx="6"/>
    <rect x="168" y="20" width="12" height="160" rx="6"/>
  </g>
</svg>
